<svg id="icons" enable-background="new 0 0 64 64" height="512" viewBox="0 0 64 64" width="512" xmlns="http://www.w3.org/2000/svg" style="fill: #333">
    <path d="m0 63.001c0 .553.447 1 1 1h24 .002c1.301-.002 2.399-.841 2.813-2.002h2.185c.553 0 1-.447 1-1s-.447-1-1-1h-2.187c-.415-1.159-1.512-1.996-2.812-1.998-.001 0-.001 0-.002 0h-23.999c-.553 0-1 .447-1 1s.447 1 1 1h21.183c-.112.314-.185.647-.185 1s.072.686.185 1h-21.183c-.553 0-1 .447-1 1zm23.998-2c0-.552.448-1 1-1 .186 0 .35.064.499.153-.292.174-.497.48-.497.845 0 .366.206.673.5.847-.149.09-.314.155-.502.155-.552 0-1-.448-1-1z"/>
    <path d="m64 59.001c0-.553-.447-1-1-1h-24c-1.301 0-2.4.838-2.815 1.998h-2.185c-.553 0-1 .447-1 1s.447 1 1 1h2.184c.414 1.162 1.514 2.002 2.816 2.002h24c.553 0 1-.447 1-1s-.447-1-1-1h-21.185c.112-.314.185-.647.185-1s-.072-.686-.185-1h21.185c.553 0 1-.447 1-1zm-24 2c0 .552-.448 1-1 1-.187 0-.352-.065-.501-.154.294-.174.501-.481.501-.848 0-.366-.205-.671-.498-.846.148-.088.313-.152.498-.152.552 0 1 .448 1 1z"/>
    <path d="m49.88 11.054c-3.334-6.616-10.224-11.055-17.88-11.055-10.006 0-18.295 7.394-19.75 17h-.25c-6.617 0-12 5.383-12 12v6.004c0 6.618 5.383 12.002 12 12.002h17v5.998c0 .001.001.002.001.003.002 1.3.839 2.396 1.999 2.81v2.082c0 .553.447 1 1 1s1-.447 1-1v-2.082c1.16-.413 1.997-1.51 1.999-2.81 0-.001.001-.002.001-.003v-6h13.99c.004 0 .006.002.01.002 8.271 0 15-6.729 15-15.002v-6.004c0-7.921-6.279-14.483-14.12-14.945zm-16.88 32.949v6.182c-.314-.113-.647-.185-1-.185s-.686.072-1 .185v-6.182zm-1 8.998c-.366 0-.672.206-.847.499-.089-.149-.153-.313-.153-.5 0-.552.448-1 1-1s1 .448 1 1c0 .187-.064.351-.153.5-.175-.293-.481-.499-.847-.499zm17.008-7.996c-.003 0-.005-.002-.008-.002h-14v-1h1c.553 0 1-.447 1-1s-.447-1-1-1h-1.98c-.007 0-.013-.004-.02-.004s-.013.004-.02.004h-3.96c-.007 0-.013-.004-.02-.004s-.013.004-.02.004h-1.98c-.553 0-1 .447-1 1s.447 1 1 1h1v1.002h-17c-5.287 0-9.618-4.129-9.966-9.331 2.156 3.209 5.818 5.325 9.966 5.325h37c5.479 0 10.268-2.962 12.886-7.36-.809 6.395-6.269 11.362-12.878 11.366zm-.008-6.006h-37c-5.514 0-10-4.486-10-10s4.486-10 10-10h.051c-.017.333-.051.662-.051 1 0 .553.447 1 1 1s1-.447 1-1c0-9.925 8.075-18 18-18 8.427 0 15.827 5.969 17.597 14.193.267 1.241.403 2.522.403 3.807 0 .553.447 1 1 1s1-.447 1-1c0-1.427-.15-2.85-.448-4.228-.195-.905-.468-1.778-.78-2.631 6.317.876 11.228 6.339 11.228 12.859 0 7.168-5.832 13-13 13z"/>
    <path d="m32 12.001c-6.065 0-11 4.935-11 11s4.935 11 11 11 11-4.935 11-11-4.935-11-11-11zm0 20c-4.963 0-9-4.037-9-9s4.037-9 9-9 9 4.037 9 9-4.037 9-9 9z"/>
    <path d="m32 25c.553 0 1-.447 1-1v-4.999c0-.553-.447-1-1-1s-1 .447-1 1v4.999c0 .553.447 1 1 1z"/>
    <path d="m32.03 26h-.01c-.552 0-.994.447-.994 1s.452 1 1.005 1c.552 0 1-.447 1-1s-.449-1-1.001-1z"/>
</svg>                  