<?xml version="1.0" ?><!DOCTYPE svg  PUBLIC '-//W3C//DTD SVG 1.1//EN'  'http://www.w3.org/Graphics/SVG/1.1/DTD/svg11.dtd'><svg height="512px" style="enable-background:new 0 0 512 512;" version="1.1" viewBox="0 0 512 512" width="512px" xml:space="preserve" xmlns="http://www.w3.org/2000/svg" xmlns:xlink="http://www.w3.org/1999/xlink"><g id="_x31_71-imdb"><g><g><g><path d="M436.714,26.001H75.287c-27.21,0-49.285,22.075-49.285,49.286v361.427      c0,27.211,22.075,49.285,49.285,49.285h361.427c27.211,0,49.284-22.074,49.284-49.285V75.287      C485.998,48.076,463.925,26.001,436.714,26.001z" style="fill:#FBBF14;"/></g></g><rect height="131.222" style="fill:#273238;" width="33.883" x="91.716" y="190.287"/><path d="M241.831,321.509h-29.469v-88.714l-11.912,88.714H179.3l-12.528-86.763v86.763h-29.776V190.287    h43.947c3.39,20.329,6.16,40.968,8.934,61.504l7.803-61.504h44.152V321.509z" style="fill:#273238;"/><path d="M330.544,236.8c0-8.317,0.31-17.25-1.438-25.055c-4.414-23.102-32.24-21.458-50.311-21.458h-25.261    v131.222C341.942,321.612,330.544,327.669,330.544,236.8z M287.522,298.713v-85.94c12.219,0,10.576,6.47,10.576,16.428v50.622    C298.099,289.781,300.049,299.022,287.522,298.713z" style="fill:#273238;"/><path d="M395.949,223.656c-9.137,0-15.298,2.773-21.457,9.447v-42.816h-32.55v131.222h30.597l1.953-8.317    c5.852,6.982,12.218,10.063,21.457,10.063c20.331,0,22.795-15.607,22.795-31.729v-36.963    C418.744,236.8,417.923,223.656,395.949,223.656z M379.522,304.362c-1.642,0-3.081-0.823-3.902-2.465    c-2.26-5.237-1.128-45.281-1.128-45.897c0-3.901-1.132-13.04,5.03-13.04c7.496,0,6.364,7.496,6.364,13.04v33.574    C385.887,295.12,387.53,304.362,379.522,304.362z" style="fill:#273238;"/></g></g><g id="Layer_1"/></svg>