<?xml version="1.0" encoding="iso-8859-1"?>
<!-- Generator: Adobe Illustrator 19.0.0, SVG Export Plug-In . SVG Version: 6.00 Build 0)  -->
<svg version="1.1" id="Layer_1" xmlns="http://www.w3.org/2000/svg" xmlns:xlink="http://www.w3.org/1999/xlink" x="0px" y="0px"
	 viewBox="0 0 496 496" style="enable-background:new 0 0 496 496;" xml:space="preserve">
<g>
	<g>
		<g>
			<path d="M252.693,453.333c-11.733,0-21.333,9.6-21.333,21.333S240.96,496,252.693,496c11.733,0,21.333-9.6,21.333-21.333
				S264.427,453.333,252.693,453.333z" style="fill: #777;"/>
			<path d="M245.973,0c-80,0-142.72,56.107-142.827,127.68c0,5.333,3.84,10.133,9.173,10.88c6.613,0.853,12.16-4.16,12.16-10.56
				c0-59.84,53.333-106.667,121.493-106.667S371.52,71.36,371.52,130.56c0,62.293-51.2,109.227-119.147,109.227
				c-5.867,0-10.56,4.8-10.56,10.667v122.56c0,5.333,3.84,10.133,9.067,10.88c6.613,0.96,12.267-4.16,12.267-10.56v-112.64
				c73.6-4.907,129.707-60.373,129.707-130.24C392.853,58.56,327.04,0,245.973,0z" style="fill: #333;"/>
		</g>
	</g>
</g>
</svg>
