<svg xmlns="http://www.w3.org/2000/svg" height="800" width="1200" xml:space="preserve" y="0" x="0" id="Layer_1" version="1.1" viewBox="-12.005325 -12.50465 104.04615 75.0279"><style id="style10314" type="text/css">.st0{fill:#00a8e1}</style><path id="path10318" d="M1.1544 29.2177a.851.851 0 01-.59-.2.7922.7922 0 01-.18-.6v-20.4a.7922.7922 0 01.18-.6.85.85 0 01.58-.17h2.22c.42-.042.798.253.86.67l.22.8a6.801 6.801 0 012.22-1.43 7.1113 7.1113 0 012.66-.52c1.818-.06 3.556.749 4.68 2.18a9.1896 9.1896 0 011.74 5.89c.034 1.528-.259 3.045-.86 4.45a7.0003 7.0003 0 01-2.33 2.93 5.7629 5.7629 0 01-3.38 1 7.1798 7.1798 0 01-2.4-.4 5.7655 5.7655 0 01-1.93-1.1v6.72a.8407.8407 0 01-.17.6.8407.8407 0 01-.6.17zm6.73-9.36a2.882 2.882 0 002.53-1.17c.623-1.118.905-2.394.81-3.67a6.7104 6.7104 0 00-.8-3.71 2.8705 2.8705 0 00-2.55-1.17 5.8483 5.8483 0 00-3 .83v8.05c.9.56 1.94.854 3 .85z" class="st0"/><path id="path10320" d="M19.5444 22.8977a.66.66 0 01-.77-.77v-14.11a.7922.7922 0 01.18-.6.85.85 0 01.58-.17h2.21c.42-.042.798.253.86.67l.4 1.64a8.7675 8.7675 0 012.32-1.92c.716-.375 1.512-.57 2.32-.57h.43c.217-.019.434.041.61.17.14.167.205.384.18.6v2.58a.8399.8399 0 01-.17.58.7922.7922 0 01-.6.18h-1.41a9.135 9.135 0 00-1.72.2c-.59.109-1.166.28-1.72.51v10.25a.85.85 0 01-.17.58.7922.7922 0 01-.6.18z" class="st0"/><path id="path10322" d="M33.2944 4.8078a2.6685 2.6685 0 01-1.87-.64 2.2515 2.2515 0 01-.71-1.75c-.034-.663.225-1.307.71-1.76 1.096-.877 2.654-.877 3.75 0 .482.451.741 1.091.71 1.75.031.659-.228 1.299-.71 1.75-.52.451-1.193.684-1.88.65zm-1.47 18.1a.66.66 0 01-.77-.77v-14.12a.7922.7922 0 01.18-.6.85.85 0 01.58-.17h2.95c.214-.022.429.038.6.17.132.171.192.386.17.6v14.12a.8399.8399 0 01-.17.58.7922.7922 0 01-.6.18z" class="st0"/><path id="path10324" d="M40.1044 22.8977a.66.66 0 01-.77-.77v-14.11a.7922.7922 0 01.18-.6.85.85 0 01.58-.17h2.21c.42-.042.798.253.86.67l.25.83c.91-.627 1.894-1.137 2.93-1.52a8.2774 8.2774 0 012.66-.46c1.576-.135 3.09.642 3.9 2 .913-.628 1.905-1.132 2.95-1.5a8.9945 8.9945 0 012.86-.46 4.48 4.48 0 013.33 1.2 4.5511 4.5511 0 011.18 3.34v10.79a.85.85 0 01-.17.58.7922.7922 0 01-.6.18h-2.91a.66.66 0 01-.77-.77v-9.84c0-1.393-.623-2.09-1.87-2.09a7.7898 7.7898 0 00-3.35.8v11.14a.8399.8399 0 01-.17.58.7922.7922 0 01-.6.18h-2.94a.66.66 0 01-.77-.77v-9.84c0-1.393-.623-2.09-1.87-2.09a7.4885 7.4885 0 00-3.38.83v11.1a.85.85 0 01-.17.58.7922.7922 0 01-.6.18z" class="st0"/><path id="path10326" d="M73.9244 23.3577a7.8183 7.8183 0 01-5.85-2.09 8.1898 8.1898 0 01-2-6 8.8873 8.8873 0 012.04-6.25 7.5006 7.5006 0 015.81-2.27 6.6599 6.6599 0 014.47 1.38 4.6 4.6 0 011.61 3.7 3.9417 3.9417 0 01-1.74 3.48 9.1088 9.1088 0 01-5.11 1.18c-1.01.012-2.018-.102-3-.34a4.1575 4.1575 0 001.24 2.94 4.904 4.904 0 003.21.89c.558 0 1.116-.037 1.67-.11.762-.118 1.516-.279 2.26-.48h.33c.347 0 .52.237.52.71v1.41c.019.239-.029.478-.14.69-.142.167-.33.288-.54.35-1.53.563-3.15.838-4.78.81zm-1-9.63a4.183 4.183 0 002.27-.48c.478-.327.748-.882.71-1.46 0-1.287-.767-1.93-2.3-1.93-1.967 0-3.103 1.207-3.41 3.62.893.171 1.801.255 2.71.25z" class="st0"/><path id="path10328" d="M72.3144 40.1277c-8.76 6.46-21.46 9.89-32.39 9.89a58.6608 58.6608 0 01-39.57-15.07c-.82-.74-.09-1.75.9-1.18a79.7148 79.7148 0 0039.59 10.49 78.8519 78.8519 0 0030.16-6.17c1.52-.63 2.76.93 1.31 2.04z" class="st0"/><path id="path10330" d="M76.0044 36.0177c-1.12-1.43-7.4-.68-10.23-.34-.86.1-1-.64-.22-1.18 5-3.52 13.23-2.5 14.18-1.32.95 1.18-.25 9.41-5 13.34-.72.6-1.41.28-1.09-.52 1.07-2.69 3.44-8.59 2.36-9.98z" class="st0"/></svg>